<svg width="59" height="60" viewBox="0 0 59 60" fill="none" xmlns="http://www.w3.org/2000/svg">
<path d="M27.1834 21.6637C27.1834 22.853 28.1194 23.8397 29.3466 24.0425V19.2839C28.1194 19.4868 27.1834 20.4737 27.1834 21.6637Z" fill="#646464"/>
<path d="M32.436 27.4558C32.436 26.2656 31.4999 25.2789 30.2724 25.076V29.8346C31.4999 29.6317 32.436 28.6451 32.436 27.4558Z" fill="#646464"/>
<path fill-rule="evenodd" clip-rule="evenodd" d="M17.607 24.5559C17.607 17.6807 23.0788 12.0743 29.8097 12.0743C36.4025 12.0743 42.0123 17.5231 42.0123 24.5559C42.0123 31.4407 36.5405 37.0375 29.8097 37.0375C22.9324 37.0375 17.607 31.3154 17.607 24.5559ZM24.3173 25.0328H24.9249C25.1807 25.0328 25.3878 24.821 25.3878 24.5593C25.3878 24.2976 25.1807 24.0858 24.9249 24.0858H24.3173C24.0614 24.0858 23.8544 24.2976 23.8544 24.5593C23.8544 24.821 24.0614 25.0328 24.3173 25.0328ZM33.3619 27.4558C33.3619 29.1634 32.011 30.5627 30.2724 30.7805V31.253C30.2724 31.5148 30.0654 31.7266 29.8095 31.7266C29.5536 31.7266 29.3466 31.5148 29.3466 31.253V30.7805C27.6083 30.5627 26.2576 29.1633 26.2576 27.4558C26.2576 27.1941 26.4646 26.9823 26.7205 26.9823C26.9763 26.9823 27.1834 27.1941 27.1834 27.4558C27.1834 28.6451 28.1194 29.6317 29.3466 29.8346V24.9884C27.6083 24.7706 26.2576 23.3712 26.2576 21.6637C26.2576 19.9561 27.6083 18.5561 29.3466 18.3381V17.8664C29.3466 17.6047 29.5536 17.3929 29.8095 17.3929C30.0654 17.3929 30.2724 17.6047 30.2724 17.8664V18.3381C32.011 18.556 33.3619 19.956 33.3619 21.6637C33.3619 21.9254 33.1548 22.1372 32.899 22.1372C32.6431 22.1372 32.436 21.9254 32.436 21.6637C32.436 20.4736 31.5 19.4868 30.2724 19.2839V24.1302C32.011 24.3481 33.3619 25.7481 33.3619 27.4558ZM34.6946 25.0328H35.3022C35.558 25.0328 35.7651 24.821 35.7651 24.5593C35.7651 24.2976 35.558 24.0858 35.3022 24.0858H34.6946C34.4387 24.0858 34.2317 24.2976 34.2317 24.5593C34.2317 24.821 34.4387 25.0328 34.6946 25.0328Z" fill="#646464"/>
<path d="M30.2726 0.473503V6.30709C30.2726 6.57228 30.0689 6.78059 29.8097 6.78059C29.5504 6.78059 29.3467 6.57228 29.3467 6.30709V0.473503C29.3467 0.208425 29.5504 0 29.8097 0C30.0689 0 30.2726 0.208434 30.2726 0.473503Z" fill="#646464"/>
<path d="M27.8931 9.25225V10.313C27.8931 10.5781 27.6801 10.7865 27.4302 10.7865C27.1709 10.7865 26.9673 10.5781 26.9673 10.313V9.25225C26.9673 8.98706 27.1709 8.77875 27.4302 8.77875C27.6801 8.77875 27.8931 8.98706 27.8931 9.25225Z" fill="#646464"/>
<path d="M32.652 9.25225V10.313C32.652 10.5781 32.4483 10.7865 32.1891 10.7865C31.9391 10.7865 31.7261 10.5781 31.7261 10.313V9.25225C31.7261 8.98706 31.9391 8.77875 32.1891 8.77875C32.4483 8.77875 32.652 8.98706 32.652 9.25225Z" fill="#646464"/>
<path d="M30.2726 7.83178V8.89253C30.2726 9.15761 30.0689 9.36604 29.8097 9.36604C29.5504 9.36604 29.3467 9.15761 29.3467 8.89253V7.83178C29.3467 7.56659 29.5504 7.35828 29.8097 7.35828C30.0689 7.35828 30.2726 7.56659 30.2726 7.83178Z" fill="#646464"/>
<path d="M32.652 1.89404V7.72762C32.652 7.99281 32.4483 8.20112 32.1891 8.20112C31.9391 8.20112 31.7261 7.99281 31.7261 7.72762V1.89404C31.7261 1.62896 31.9391 1.42053 32.1891 1.42053C32.4483 1.42053 32.652 1.62896 32.652 1.89404Z" fill="#646464"/>
<path d="M27.8931 1.89404V7.72762C27.8931 7.99281 27.6801 8.20112 27.4302 8.20112C27.1709 8.20112 26.9673 7.99281 26.9673 7.72762V1.89404C26.9673 1.62896 27.1709 1.42053 27.4302 1.42053C27.6801 1.42053 27.8931 1.62896 27.8931 1.89404Z" fill="#646464"/>
<path fill-rule="evenodd" clip-rule="evenodd" d="M0.636841 55.2944H10.8672V36.136H0.636841V55.2944ZM29.8949 59.9924C36.2552 59.6275 51.5578 49.3904 56.7335 45.5996C57.5541 45.1187 58.0391 44.267 58.0391 43.3523C58.0391 41.4797 56.1222 40.2472 54.4623 41.0607L41.3527 47.5501C40.6854 48.5041 39.6643 49.063 38.5037 49.063H25.1717C24.9158 49.063 24.7088 48.8513 24.7088 48.5895C24.7088 48.3278 24.9158 48.116 25.1717 48.116H38.5037C39.9216 48.116 41.0593 46.9376 41.0593 45.5025C41.0593 44.0663 39.9128 42.8983 38.5037 42.8983H31.597C31.4822 42.8983 31.3719 42.8548 31.2864 42.7762C28.1703 39.8954 24.2535 38.129 20.8096 38.0495C16.6917 37.9505 13.043 38.0106 11.8026 38.0384V52.1556C13.5815 53.2293 25.3896 60.2625 29.8949 59.9924Z" fill="#646464"/>
</svg>
