<svg width="43" height="60" viewBox="0 0 43 60" fill="none" xmlns="http://www.w3.org/2000/svg">
<path d="M31.8722 20.2031C32.4662 20.4317 32.969 20.8558 33.3015 21.4087C33.4518 21.6405 33.7057 21.7799 33.9777 21.7799C34.2496 21.7799 34.5035 21.6405 34.6538 21.4087C35.1009 20.6492 35.8592 20.1366 36.7176 20.0136C37.576 19.8906 38.4428 20.1704 39.0768 20.775L40.2626 19.3219V12.8571C40.2601 10.4913 38.3857 8.57395 36.0726 8.57143H31.8827C29.5697 8.57395 27.6952 10.4913 27.6927 12.8571V12.9608C30.2446 14.4443 31.8355 17.2011 31.8722 20.2031Z" fill="#646464"/>
<path d="M36.0726 2.14286H37.1201V1.07404C37.1201 0.482516 36.6515 0.00290586 36.0732 0.00261601L31.8832 0.000473151C31.6053 0.000333868 31.3387 0.113155 31.1422 0.314102C30.9456 0.515048 30.8352 0.78765 30.8352 1.0719V2.14286H36.0726Z" fill="#646464"/>
<path fill-rule="evenodd" clip-rule="evenodd" d="M14.4468 21.4087C14.6205 21.6779 14.9363 21.8129 15.2457 21.75C14.8118 19.2183 15.5389 16.6229 17.2179 14.7104V7.49999C17.2179 5.72479 15.811 4.28571 14.0754 4.28571C12.3399 4.28571 10.933 5.72479 10.933 7.49999V20.2075C12.2329 19.646 13.7381 20.1606 14.4468 21.4087ZM12.2874 11.0282L13.3349 9.95678C13.7449 9.54486 14.4029 9.54791 14.8093 9.96361C15.2157 10.3793 15.2187 11.0523 14.816 11.4718L13.7685 12.5432C13.3585 12.9551 12.7005 12.9521 12.2941 12.5364C11.8877 12.1207 11.8847 11.4476 12.2874 11.0282ZM13.3349 14.2425L12.2874 15.3139C11.8847 15.7334 11.8877 16.4064 12.2941 16.8221C12.7005 17.2378 13.3585 17.2408 13.7685 16.8289L14.816 15.7575C15.2187 15.338 15.2157 14.665 14.8093 14.2493C14.4029 13.8336 13.7449 13.8306 13.3349 14.2425Z" fill="#646464"/>
<path d="M32.9302 5.35713V6.42856H35.0252V5.35713C35.0252 4.7654 34.5562 4.28571 33.9777 4.28571C33.3992 4.28571 32.9302 4.7654 32.9302 5.35713Z" fill="#646464"/>
<path fill-rule="evenodd" clip-rule="evenodd" d="M39.8197 23.2078C39.7259 23.2804 39.6364 23.3587 39.5517 23.4422C39.5466 23.4452 39.5413 23.4466 39.536 23.4479C39.5309 23.4492 39.5259 23.4505 39.5212 23.4531C39.4516 23.4876 39.3783 23.5139 39.3028 23.5314C39.0605 23.632 38.7857 23.6076 38.564 23.4657C38.4969 23.4375 38.433 23.402 38.3732 23.3598C38.3689 23.3563 38.3641 23.3542 38.3593 23.3521C38.3542 23.3499 38.3491 23.3477 38.3446 23.3438C38.2738 23.2477 38.1973 23.1562 38.1155 23.0697L37.7912 22.5126C37.6476 22.2729 37.3923 22.1272 37.1175 22.128C36.8427 22.1289 36.5882 22.2762 36.446 22.5168C35.9263 23.4032 34.9901 23.9459 33.9796 23.9465C32.969 23.9472 32.0322 23.4057 31.5114 22.5199C31.3611 22.2881 31.1072 22.1487 30.8352 22.1487C30.5633 22.1487 30.3094 22.2881 30.1591 22.5199C29.6386 23.4051 28.7027 23.9466 27.6928 23.9466C26.6829 23.9466 25.7469 23.4051 25.2265 22.5199C25.0761 22.2881 24.8223 22.1487 24.5503 22.1487C24.2784 22.1487 24.0245 22.2881 23.8742 22.5199C23.3537 23.4051 22.4177 23.9466 21.4079 23.9466C20.398 23.9466 19.462 23.4051 18.9416 22.5199C18.7912 22.2881 18.5374 22.1487 18.2654 22.1487C17.9934 22.1487 17.7396 22.2881 17.5893 22.5199C17.0688 23.4051 16.1328 23.9466 15.1229 23.9466C14.1131 23.9466 13.1771 23.4051 12.6566 22.5199C12.5063 22.2881 12.2524 22.1487 11.9805 22.1487C11.7085 22.1487 11.4547 22.2881 11.3043 22.5199C11.1293 22.8038 10.9084 23.0552 10.6509 23.2633C10.574 23.3448 10.4848 23.4132 10.3868 23.4658C9.73686 23.9041 8.9398 24.051 8.18121 23.8723C7.42261 23.6936 6.7687 23.2048 6.37174 22.5199C6.22142 22.2881 5.96755 22.1487 5.69559 22.1487C5.42364 22.1487 5.16977 22.2881 5.01944 22.5199L4.70028 23.0697C4.66427 23.1184 4.62404 23.1636 4.58008 23.2049C4.54785 23.2544 4.5114 23.3009 4.47114 23.3438C4.46666 23.3477 4.46154 23.3499 4.45641 23.3522C4.4516 23.3543 4.44678 23.3563 4.44251 23.3598C4.38279 23.402 4.31883 23.4375 4.25173 23.4657C4.196 23.4993 4.13736 23.5275 4.07654 23.55C4.01755 23.5615 3.9577 23.5678 3.89766 23.5687C3.82596 23.5807 3.75323 23.5849 3.68067 23.5813C3.62348 23.5695 3.56737 23.5528 3.5129 23.5314C3.43742 23.5139 3.36415 23.4877 3.2945 23.4531C3.28979 23.4505 3.28477 23.4492 3.27975 23.4479C3.27442 23.4466 3.26907 23.4452 3.26407 23.4422C3.21593 23.4052 3.17121 23.3637 3.13046 23.3183C3.08259 23.2856 3.03762 23.2486 2.99606 23.2078L0.45813 20.0982V53.0912C0.458735 53.8429 0.716387 54.5708 1.18646 55.1487L3.56887 58.0727C4.56263 59.2956 6.0374 60.0021 7.59209 60H35.2236C36.7783 60.0021 38.2531 59.2956 39.2468 58.0727L41.6292 55.1487C42.0993 54.5708 42.357 53.8429 42.3576 53.0912V20.0982L39.8197 23.2078ZM4.64808 52.5C4.64808 53.0917 4.1791 53.5714 3.60059 53.5714C3.02208 53.5714 2.55311 53.0917 2.55311 52.5V28.9286C2.55311 28.3368 3.02208 27.8571 3.60059 27.8571C4.1791 27.8571 4.64808 28.3368 4.64808 28.9286V52.5ZM39.2151 53.5714C39.7936 53.5714 40.2626 53.0917 40.2626 52.5V28.9286C40.2626 28.3368 39.7936 27.8571 39.2151 27.8571C38.6366 27.8571 38.1676 28.3368 38.1676 28.9286V52.5C38.1676 53.0917 38.6366 53.5714 39.2151 53.5714Z" fill="#646464"/>
<path d="M20.7317 21.4087C20.882 21.6405 21.1359 21.7799 21.4079 21.7799C21.6798 21.7799 21.9337 21.6405 22.084 21.4087C22.6045 20.5235 23.5404 19.982 24.5503 19.982C25.5602 19.982 26.4962 20.5235 27.0166 21.4087C27.167 21.6405 27.4208 21.7799 27.6928 21.7799C27.9647 21.7799 28.2186 21.6405 28.3689 21.4087C28.6976 20.8625 29.1926 20.442 29.7778 20.2117C29.7411 17.7808 28.3514 15.5845 26.1983 14.5548C23.773 13.4095 20.9068 13.9317 19.0173 15.8632C17.8987 17.0223 17.2573 18.5761 17.2251 20.2045C18.5237 19.6478 20.0246 20.1632 20.7317 21.4087L20.7317 21.4087Z" fill="#646464"/>
<path fill-rule="evenodd" clip-rule="evenodd" d="M8.16185 21.4087C7.64316 20.5216 6.70607 19.9796 5.69556 19.982C4.96853 19.9819 4.26894 20.266 3.73996 20.7761L2.5531 19.3219V3.21429C2.5531 1.43908 3.96003 0 5.69556 0C7.43109 0 8.83801 1.43908 8.83801 3.21429V21.7799C8.56465 21.7857 8.3082 21.6449 8.16185 21.4087ZM4.95498 5.67107L3.9075 6.7425C3.50479 7.16194 3.50777 7.83497 3.91417 8.25067C4.32058 8.66637 4.97857 8.66941 5.38864 8.2575L6.43612 7.18607C6.83883 6.76663 6.83585 6.0936 6.42945 5.6779C6.02304 5.26221 5.36505 5.25916 4.95498 5.67107ZM3.9075 11.0282L4.95498 9.95678C5.36505 9.54487 6.02304 9.54792 6.42945 9.96361C6.83585 10.3793 6.83883 11.0523 6.43612 11.4718L5.38864 12.5432C4.97857 12.9551 4.32058 12.9521 3.91417 12.5364C3.50777 12.1207 3.50479 11.4477 3.9075 11.0282ZM4.95498 14.2425L3.9075 15.3139C3.50479 15.7334 3.50777 16.4064 3.91417 16.8221C4.32058 17.2378 4.97857 17.2408 5.38864 16.8289L6.43612 15.7575C6.83883 15.3381 6.83585 14.665 6.42945 14.2493C6.02304 13.8336 5.36505 13.8306 4.95498 14.2425Z" fill="#646464"/>
</svg>
