<svg width="78" height="38" viewBox="0 0 78 38" fill="none" xmlns="http://www.w3.org/2000/svg">
<path fill-rule="evenodd" clip-rule="evenodd" d="M14.3394 2.47665C14.34 1.15141 15.36 0.0612929 16.6544 0.00263691V0.0024329C16.896 -0.00853031 17.138 0.0176015 17.3721 0.0799583C31.5519 3.85672 46.4411 3.85672 60.6209 0.0799583C61.3463 -0.112713 62.1181 0.0489811 62.7111 0.51787C63.3041 0.986759 63.6514 1.71002 63.6518 2.47665V4.39193C64.5326 3.59584 65.5042 2.91145 66.5455 2.35363C69.1305 0.967495 72.2626 1.21448 74.6093 2.9895C76.9561 4.76452 78.1045 7.75529 77.5662 10.6894C76.1039 18.6669 70.8244 25.3608 63.5111 28.5101C62.975 31.3334 60.9617 33.6247 58.2743 34.4703C45.7122 38.4264 32.2772 38.4264 19.7152 34.4703C17.0284 33.6242 15.0159 31.3329 14.4801 28.5101C7.16815 25.3598 1.89013 18.6661 0.428563 10.6894C-0.107818 7.75735 1.03997 4.76942 3.38429 2.99509C5.72861 1.22076 8.85771 0.971663 11.4422 2.35363C12.4847 2.9112 13.4575 3.5956 14.3394 4.39193V2.47665ZM10.8036 3.60471C9.87784 3.10987 8.8453 2.86094 7.80089 2.8808C5.96705 2.91517 4.24108 3.77392 3.08258 5.22839C1.92408 6.68286 1.45064 8.58539 1.78834 10.4294C3.11637 17.6753 7.79412 23.8141 14.3394 26.9006V6.36339C13.3216 5.2462 12.1261 4.31344 10.8036 3.60471ZM69.8086 2.88441C71.7093 2.79859 73.5443 3.60538 74.7912 5.07517C76.0382 6.54495 76.5607 8.51677 76.2099 10.4295C74.8804 17.6769 70.1998 23.816 63.6518 26.9007V6.36346C64.6696 5.24627 65.8651 4.31351 67.1876 3.60478C67.9989 3.17066 68.8938 2.92471 69.8086 2.88441ZM41.9306 10.3064H36.0588V15.8625H30.6338V21.8613H36.0588V27.4173H41.9306V21.8613H47.3592V15.8625H41.9306V10.3064Z" fill="#646464"/>
</svg>
