<svg width="35" height="60" viewBox="0 0 35 60" fill="none" xmlns="http://www.w3.org/2000/svg">
<path d="M27.5708 37.9864H19.0268C13.7228 37.9864 9.40583 33.5329 9.40583 28.0611V4.85171C9.40583 2.17769 7.29753 0 4.70291 0C2.1109 0 0 2.17769 0 4.85171V28.0624C0 31.0539 0.677991 34.0494 1.95835 36.7341C2.55942 37.9931 2.87755 39.3988 2.87755 40.8057V59.3275C2.87755 59.7 3.16831 60 3.52947 60H25.5929V48.2965C25.5929 47.9239 25.8875 47.6239 26.2448 47.6239C26.6046 47.6239 26.8967 47.9239 26.8967 48.2965V50.9866V59.3275V60H34.3481C34.7092 60 35 59.7 35 59.3275V45.6534C34.9987 41.4258 31.6648 37.9864 27.5708 37.9864Z" fill="#646464"/>
<path d="M19.0268 18.8473C14.1048 18.8473 10.0981 22.9794 10.0981 28.0611C10.0981 33.1388 14.1035 37.2722 19.0268 37.2722C23.9513 37.2722 27.958 33.1401 27.958 28.0611C27.958 22.9821 23.9513 18.8473 19.0268 18.8473Z" fill="#646464"/>
</svg>
